<svg width="300" height="450" viewBox="0 0 300 450" fill="none" xmlns="http://www.w3.org/2000/svg">
<rect width="300" height="450" fill="#EF6C00"/>
<rect y="252" width="300" height="198" fill="#E65100"/>
<path d="M221.036 182.717C219.581 204.985 225.088 228.078 218.607 281.268C212.705 294.913 203.441 306.333 181.987 304.932C163.027 303.693 168.097 264.44 143.649 262.843C126.186 261.702 134.611 293.82 106.67 291.995C78.7294 290.17 107.184 253.446 79.84 250.157C61.5484 247.957 84.3454 197.352 91.8115 174.276C105.623 131.586 102.808 90.5 163.5 90.5C224.192 90.5 224.15 135.046 221.036 182.717Z" fill="#EFEFEF"/>
<path d="M160.414 190.282C136.866 190.247 130.443 211.874 130.443 211.874C130.443 211.874 152.419 205.293 160.901 205.847C169.383 206.401 192.474 213.421 192.474 213.421C192.474 213.421 183.962 190.317 160.414 190.282Z" fill="#222222"/>
<path d="M155.287 161.386L125.298 144.896C125.298 144.896 120.707 169.149 133.582 171.493C146.456 173.837 155.287 161.386 155.287 161.386Z" fill="#222222"/>
<path d="M150 231C141.687 242.451 136.166 254.85 125 286" stroke="#222222" stroke-width="2" stroke-linecap="round"/>
<path d="M122 121C122.141 114.889 124.536 111.282 130 110.5M125.5 123.5C125.341 118.186 127.348 114.249 131.5 115" stroke="#222222" stroke-width="2" stroke-linecap="round"/>
<path d="M161 243C167.218 257.978 168.134 268.323 167 289.5" stroke="#111111" stroke-width="2" stroke-linecap="round"/>
<path d="M184.441 175.316C175.796 177.257 171.752 162.461 171.752 162.461L208.359 154.33C208.359 154.33 193.086 173.375 184.441 175.316Z" fill="#222222"/>
<path d="M88.9386 340.704V357H83.6466L78.2986 350.812V357H72.0266V340.704H77.3186L82.6666 346.948V340.704H88.9386Z" fill="#EFEFEF"/>
<path d="M102.014 357.42C100.203 357.42 98.5695 357.056 97.1135 356.328C95.6762 355.581 94.5469 354.555 93.7255 353.248C92.9042 351.941 92.4935 350.476 92.4935 348.852C92.4935 347.228 92.9042 345.763 93.7255 344.456C94.5469 343.149 95.6762 342.132 97.1135 341.404C98.5695 340.657 100.203 340.284 102.014 340.284C103.824 340.284 105.448 340.657 106.886 341.404C108.323 342.132 109.452 343.149 110.274 344.456C111.095 345.763 111.506 347.228 111.506 348.852C111.506 350.476 111.095 351.941 110.274 353.248C109.452 354.555 108.323 355.581 106.886 356.328C105.448 357.056 103.824 357.42 102.014 357.42ZM102.014 352.38C102.891 352.38 103.61 352.053 104.17 351.4C104.73 350.747 105.01 349.897 105.01 348.852C105.01 347.807 104.73 346.957 104.17 346.304C103.61 345.651 102.891 345.324 102.014 345.324C101.136 345.324 100.408 345.66 99.8295 346.332C99.2695 346.985 98.9895 347.825 98.9895 348.852C98.9895 349.879 99.2695 350.728 99.8295 351.4C100.408 352.053 101.136 352.38 102.014 352.38Z" fill="#EFEFEF"/>
<path d="M118.024 345.464H113.376V340.704H129.112V345.464H124.464V357H118.024V345.464Z" fill="#EFEFEF"/>
<path d="M148.324 345.324V347.508H154.848V352.128H148.324V357H141.884V340.704H155.8V345.324H148.324Z" fill="#EFEFEF"/>
<path d="M167.715 357.42C165.904 357.42 164.271 357.056 162.815 356.328C161.378 355.581 160.248 354.555 159.427 353.248C158.606 351.941 158.195 350.476 158.195 348.852C158.195 347.228 158.606 345.763 159.427 344.456C160.248 343.149 161.378 342.132 162.815 341.404C164.271 340.657 165.904 340.284 167.715 340.284C169.526 340.284 171.15 340.657 172.587 341.404C174.024 342.132 175.154 343.149 175.975 344.456C176.796 345.763 177.207 347.228 177.207 348.852C177.207 350.476 176.796 351.941 175.975 353.248C175.154 354.555 174.024 355.581 172.587 356.328C171.15 357.056 169.526 357.42 167.715 357.42ZM167.715 352.38C168.592 352.38 169.311 352.053 169.871 351.4C170.431 350.747 170.711 349.897 170.711 348.852C170.711 347.807 170.431 346.957 169.871 346.304C169.311 345.651 168.592 345.324 167.715 345.324C166.838 345.324 166.11 345.66 165.531 346.332C164.971 346.985 164.691 347.825 164.691 348.852C164.691 349.879 164.971 350.728 165.531 351.4C166.11 352.053 166.838 352.38 167.715 352.38Z" fill="#EFEFEF"/>
<path d="M188.983 357.42C187.247 357.42 185.744 357.112 184.475 356.496C183.224 355.861 182.263 354.984 181.591 353.864C180.938 352.725 180.611 351.4 180.611 349.888V340.704H187.051V349.692C187.051 351.484 187.714 352.38 189.039 352.38C190.345 352.38 190.999 351.484 190.999 349.692V340.704H197.327V349.888C197.327 351.4 196.991 352.725 196.319 353.864C195.665 354.984 194.713 355.861 193.463 356.496C192.212 357.112 190.719 357.42 188.983 357.42Z" fill="#EFEFEF"/>
<path d="M218.477 340.704V357H213.185L207.837 350.812V357H201.565V340.704H206.857L212.205 346.948V340.704H218.477Z" fill="#EFEFEF"/>
<path d="M222.844 340.704H231.244C233.129 340.704 234.79 341.031 236.228 341.684C237.665 342.337 238.785 343.28 239.588 344.512C240.39 345.725 240.792 347.172 240.792 348.852C240.792 350.532 240.39 351.988 239.588 353.22C238.785 354.433 237.665 355.367 236.228 356.02C234.79 356.673 233.129 357 231.244 357H222.844V340.704ZM231.048 352.184C232.018 352.184 232.802 351.904 233.4 351.344C233.997 350.765 234.296 349.935 234.296 348.852C234.296 347.769 233.997 346.948 233.4 346.388C232.802 345.809 232.018 345.52 231.048 345.52H229.284V352.184H231.048Z" fill="#EFEFEF"/>
<path d="M109.692 50.704C111.241 50.704 112.595 50.9653 113.752 51.488C114.928 51.992 115.833 52.72 116.468 53.672C117.103 54.6053 117.42 55.7067 117.42 56.976C117.42 58.2453 117.103 59.356 116.468 60.308C115.833 61.2413 114.928 61.96 113.752 62.464C112.595 62.968 111.241 63.22 109.692 63.22H107.76V67H101.32V50.704H109.692ZM109.188 58.516C109.785 58.516 110.233 58.376 110.532 58.096C110.831 57.816 110.98 57.4427 110.98 56.976C110.98 56.5093 110.831 56.136 110.532 55.856C110.233 55.576 109.785 55.436 109.188 55.436H107.76V58.516H109.188Z" fill="#EFEFEF"/>
<path d="M129.721 67.42C127.91 67.42 126.277 67.056 124.821 66.328C123.384 65.5813 122.254 64.5547 121.433 63.248C120.612 61.9413 120.201 60.476 120.201 58.852C120.201 57.228 120.612 55.7627 121.433 54.456C122.254 53.1493 123.384 52.132 124.821 51.404C126.277 50.6573 127.91 50.284 129.721 50.284C131.532 50.284 133.156 50.6573 134.593 51.404C136.03 52.132 137.16 53.1493 137.981 54.456C138.802 55.7627 139.213 57.228 139.213 58.852C139.213 60.476 138.802 61.9413 137.981 63.248C137.16 64.5547 136.03 65.5813 134.593 66.328C133.156 67.056 131.532 67.42 129.721 67.42ZM129.721 62.38C130.598 62.38 131.317 62.0533 131.877 61.4C132.437 60.7467 132.717 59.8973 132.717 58.852C132.717 57.8067 132.437 56.9573 131.877 56.304C131.317 55.6507 130.598 55.324 129.721 55.324C128.844 55.324 128.116 55.66 127.537 56.332C126.977 56.9853 126.697 57.8253 126.697 58.852C126.697 59.8787 126.977 60.728 127.537 61.4C128.116 62.0533 128.844 62.38 129.721 62.38Z" fill="#EFEFEF"/>
<path d="M148.973 67.42C147.629 67.42 146.285 67.28 144.941 67C143.615 66.7013 142.514 66.3093 141.637 65.824L143.681 61.288C144.502 61.7547 145.407 62.1187 146.397 62.38C147.386 62.6227 148.366 62.744 149.337 62.744C150.345 62.744 150.849 62.5667 150.849 62.212C150.849 61.9693 150.662 61.792 150.289 61.68C149.934 61.5493 149.318 61.4 148.441 61.232C147.171 61.008 146.089 60.7467 145.193 60.448C144.315 60.1493 143.541 59.636 142.869 58.908C142.197 58.18 141.861 57.1907 141.861 55.94C141.861 54.8947 142.187 53.9427 142.841 53.084C143.494 52.2253 144.437 51.544 145.669 51.04C146.901 50.536 148.357 50.284 150.037 50.284C151.194 50.284 152.333 50.4053 153.453 50.648C154.573 50.8907 155.562 51.2453 156.421 51.712L154.517 56.22C153.042 55.38 151.474 54.96 149.813 54.96C149.271 54.96 148.861 55.0253 148.581 55.156C148.301 55.268 148.161 55.4267 148.161 55.632C148.161 55.856 148.338 56.0333 148.693 56.164C149.066 56.276 149.663 56.3973 150.485 56.528C151.754 56.7333 152.837 56.9853 153.733 57.284C154.647 57.5827 155.441 58.0867 156.113 58.796C156.803 59.5053 157.149 60.476 157.149 61.708C157.149 62.772 156.841 63.7427 156.225 64.62C155.609 65.4787 154.685 66.16 153.453 66.664C152.221 67.168 150.727 67.42 148.973 67.42Z" fill="#EFEFEF"/>
<path d="M163.209 55.464H158.561V50.704H174.297V55.464H169.649V67H163.209V55.464Z" fill="#EFEFEF"/>
<path d="M191.499 62.38V67H177.275V50.704H191.191V55.324H183.603V56.584H190.239V60.896H183.603V62.38H191.499Z" fill="#EFEFEF"/>
<path d="M202.108 63.136H201.576V67H195.136V50.704H203.508C205.058 50.704 206.411 50.9653 207.568 51.488C208.744 51.992 209.65 52.72 210.284 53.672C210.919 54.6053 211.236 55.7067 211.236 56.976C211.236 58.1333 210.975 59.1507 210.452 60.028C209.93 60.8867 209.183 61.5773 208.212 62.1L211.6 67H204.74L202.108 63.136ZM204.796 56.976C204.796 56.5093 204.647 56.136 204.348 55.856C204.05 55.576 203.602 55.436 203.004 55.436H201.576V58.516H203.004C203.602 58.516 204.05 58.376 204.348 58.096C204.647 57.816 204.796 57.4427 204.796 56.976Z" fill="#EFEFEF"/>
</svg>
